<svg xmlns="http://www.w3.org/2000/svg" width="70pt" height="70pt" viewBox="0 0 2351.09 1290.35"><defs><style>.a{fill:#4286f4;}</style></defs>
  <path class="a" d="M430.75,801.49c-27.51-9.17-59.17-18.09-80-45.06-26.16-34.48-34.48-70.15-36.86-148.64C321.8,429.1,429.49,415.05,478.44,452.2c40.75-17.17,91.1-30,144.77-32.86,0-.6-.08-1.2-.11-1.81C619.53,345,639.75,257,640.94,235.6c2.38-36.87-23.79-39.24-60.65-34.49C512.51,210.63,386.47,305.76,319.87,414c1.19-14.27,2.38-28.54,4.76-41.62,10.7-70.16,10.7-132-32.11-145.08C249.72,213,218.8,242.73,157,282c-53.51,33.3-80.86,33.3-109.4,54.7-25,19-36.86,45.19-21.4,71.35,33.3,55.89,114.16,46.38,114.16,189.07,0,76.1-7.14,120.1-36.87,159.34C60.65,813.51,0,807.57,0,863.45c0,30.92,28.54,55.89,72.54,55.89,60.64,0,128.42-9.51,178.37-9.51,34.7,0,82.55,4.38,120.87,7.2C385.64,878.63,405.54,839.52,430.75,801.49Z"/>
  <path class="a" d="M948.09,1136.86c6.28-7.77,12.33-17.66,18.08-31.85,17-41.76,25.55-107.43,25.55-195.18V844.68c-39.77-95.2-44.57-143.51-7.13-204.78,1.22-2,2.45-3.92,3.68-5.84-5.27-56.73-15.78-91.95-25.82-107.5l-.14-.22c-6.59-10.35-12.93-19.71-19-28.4-27.25,7.91-57.38,20.29-87.16,34.94-58.27-44-118.91-66.59-210.47-66.59-120.1,0-225.94,59.45-223.56,90.37,2.38,29.73,22.6,52.32,64.21,51.13,55.89-2.38,135.56-8.32,203.34,19C436.4,766,325.81,1058.47,443.54,1146.47c78.48,58.26,283-25,386.46-185.51C854.69,1049.35,898.58,1107.84,948.09,1136.86Zm-193-243.68c-47.57,65.4-97.51,85.62-129.62,63-33.29-23.79-17.83-84.43,36.86-152.21,41.62-52.32,74.92-82,110.59-105.83C805,756.43,796.71,834.92,755.09,893.18Z"/>
  <path class="a" d="M1344.89,1184.52c-74.92-16.65-132-48.76-132-121.29V953.83c44,30.92,98.69,47.56,161.72,47.56a360.18,360.18,0,0,0,100-14,92.52,92.52,0,0,1-12.55-46.66c0-56.73,28.89-81.4,52.1-101.22,11.84-10.12,24.1-20.59,37.09-37.91,5.09-6.72,14.32-24.38,20.51-69.23,4.6-33.32,6.84-76.8,6.84-132.92V484.12c0-58-.88-95.59-6.83-118.85A305.9,305.9,0,0,0,1398.4,311.7c-59.46,0-101.08,19-136.75,40.43-48.75,29.73-97.51,36.86-154.59,3.57-86.8-51.13-121.29-55.89-159.34-17.84-47.56,47.57-5.94,67.78,54.7,162.91,23.78,36.86,36.86,114.16,36.86,214v195c0,317.5-108.21,258-108.21,328.2,0,25,25,52.32,72.54,52.32,44,0,124.86-9.51,172.42-9.51,41.62,0,129.62,9.51,166.48,9.51,44,0,60.65-25,60.65-52.32C1403.16,1213.06,1378.18,1191.65,1344.89,1184.52Zm-26.16-749.15c113,4.76,168.85,143.88,173.61,261.61,4.76,115.34-30.92,192.64-107,191.45-98.7-1.19-164.1-117.73-171.23-242.59C1207,515,1234.3,431.8,1318.73,435.37Z"/>
  <path class="a" d="M1509.62,940.75c0-55.89,36.86-53.51,79.67-110.59,29.73-39.24,36.86-127.24,36.86-230.69V484.12c0-99.88,0-164.09-52.32-190.26-32.1-16.64-54.7-10.7-73.72-42.8-15.46-26.16-3.57-52.33,21.4-71.35,28.54-21.41,59.46-34.49,99.89-64.21,41.62-30.92,63-66.59,101.07-95.13C1758.15-7,1793.82-7,1815.22,21.56c23.79,32.1,15.46,64.21,3.57,109.39-19,72.54-19,205.72-19,293.72v38.05c55.88-103.45,147.45-157,266.36-157,145.07,0,234.26,93.94,208.1,281.82-23.79,173.61-15.46,215.23,35.67,266.36,35.67,35.68,44,52.32,40.43,86.81-3.57,30.91-28.54,52.32-72.54,52.32-47.56,0-97.5-9.51-148.64-9.51-49.94,0-58.26,9.51-107,9.51-44,0-59.45-22.59-60.64-52.32-2.38-55.89,70.16-67.78,124.85-225.94,53.52-155.77-54.69-305.6-181.93-252.09-126.05,53.51-137.94,242.58-67.78,367.44,26.16,46.37,46.37,80.86,44,110.59-2.38,30.91-28.54,52.32-60.65,52.32-35.67,0-55.89-9.51-107-9.51-49.94,0-70.16,9.51-130.8,9.51C1538.16,993.07,1509.62,971.66,1509.62,940.75Z"/></svg>
